<?xml version="1.0" encoding="UTF-8"?>
<svg width="938px" height="726px" viewBox="0 0 938 726" version="1.1" xmlns="http://www.w3.org/2000/svg" xmlns:xlink="http://www.w3.org/1999/xlink">
    <title>render-jsx-logo-dark</title>
    <g id="render-jsx-logo-dark" stroke="none" stroke-width="1" fill="none" fill-rule="evenodd">
        <g id="Group" transform="translate(0.000000, 86.000000)">
            <rect id="Rectangle" fill="#F7AA00" x="0" y="0" width="640" height="640"></rect>
            <path d="M354.888,609.072 C366.322667,609.072 376.008,607.493333 383.944,604.336 C391.88,601.178667 398.322667,596.869333 403.272,591.408 C408.221333,585.946667 411.762667,579.589333 413.896,572.336 C416.029333,565.082667 417.096,557.36 417.096,549.168 L417.096,549.168 L417.096,439.088 L314.184,439.088 L314.184,470.576 L379.464,470.576 L379.464,546.096 C379.464,557.701333 377.330667,565.68 373.064,570.032 C368.797333,574.384 362.312,576.56 353.608,576.56 C342.173333,576.56 331.592,570.416 321.864,558.128 L321.864,558.128 L300.104,581.424 C303.688,586.544 307.698667,590.853333 312.136,594.352 C316.573333,597.850667 321.181333,600.709333 325.96,602.928 C330.738667,605.146667 335.602667,606.725333 340.552,607.664 C345.501333,608.602667 350.28,609.072 354.888,609.072 Z M546.888,609.072 C557.298667,609.072 566.514667,607.664 574.536,604.848 C582.557333,602.032 589.298667,598.277333 594.76,593.584 C600.221333,588.890667 604.402667,583.429333 607.304,577.2 C610.205333,570.970667 611.656,564.357333 611.656,557.36 C611.656,545.584 608.456,536.112 602.056,528.944 C595.656,521.776 586.909333,516.144 575.816,512.048 L575.816,512.048 L555.592,503.344 C547.4,500.442667 540.786667,497.669333 535.752,495.024 C530.717333,492.378667 528.2,488.581333 528.2,483.632 C528.2,478.682667 530.12,474.928 533.96,472.368 C537.8,469.808 542.877333,468.528 549.192,468.528 C557.384,468.528 564.381333,469.68 570.184,471.984 C575.986667,474.288 581.789333,477.573333 587.592,481.84 L587.592,481.84 L606.792,458.032 C599.112,450.864 590.493333,445.402667 580.936,441.648 C571.378667,437.893333 561.48,436.016 551.24,436.016 C542.194667,436.016 533.917333,437.296 526.408,439.856 C518.898667,442.416 512.456,445.957333 507.08,450.48 C501.704,455.002667 497.522667,460.293333 494.536,466.352 C491.549333,472.410667 490.056,478.853333 490.056,485.68 C490.056,491.824 491.037333,497.328 493,502.192 C494.962667,507.056 497.565333,511.322667 500.808,514.992 C504.050667,518.661333 507.848,521.861333 512.2,524.592 C516.552,527.322667 521.032,529.541333 525.64,531.248 L525.64,531.248 L547.144,540.464 C551.069333,542.170667 554.653333,543.706667 557.896,545.072 C561.138667,546.437333 563.869333,547.888 566.088,549.424 C568.306667,550.96 570.013333,552.709333 571.208,554.672 C572.402667,556.634667 573,559.066667 573,561.968 C573,566.234667 571.122667,569.733333 567.368,572.464 C563.613333,575.194667 557.64,576.56 549.448,576.56 C541.256,576.56 533.405333,574.938667 525.896,571.696 C518.386667,568.453333 511.474667,564.272 505.16,559.152 L505.16,559.152 L483.4,585.008 C492.445333,593.029333 502.472,599.045333 513.48,603.056 C524.488,607.066667 535.624,609.072 546.888,609.072 Z M701,606 L718.408,571.952 C720.456,567.514667 722.504,563.12 724.552,558.768 C726.6,554.416 728.648,549.68 730.696,544.56 L730.696,544.56 L731.72,544.56 C734.109333,549.68 736.328,554.416 738.376,558.768 C740.424,563.12 742.642667,567.514667 745.032,571.952 L745.032,571.952 L763.208,606 L805.192,606 L756.552,522.032 L802.376,439.088 L761.928,439.088 L747.08,470.576 C745.202667,474.501333 743.368,478.64 741.576,482.992 C739.784,487.344 737.864,492.165333 735.816,497.456 L735.816,497.456 L734.792,497.456 C732.232,492.165333 729.928,487.344 727.88,482.992 C725.832,478.64 723.869333,474.501333 721.992,470.576 L721.992,470.576 L705.864,439.088 L663.624,439.088 L709.448,520.24 L660.808,606 L701,606 Z" id="JSX" fill="#FFFFFF" fill-rule="nonzero"></path>
        </g>
        <path d="M568,278 L568,286 L560,286 L560,278 L568,278 Z M504,278 L504,286 L496,286 L496,278 L504,278 Z M440,278 L440,286 L432,286 L432,278 L440,278 Z M376,278 L376,286 L368,286 L368,278 L376,278 Z M312,278 L312,286 L304,286 L304,278 L312,278 Z M568,214 L568,222 L560,222 L560,214 L568,214 Z M504,214 L504,222 L496,222 L496,214 L504,214 Z M440,214 L440,222 L432,222 L432,214 L440,214 Z M376,214 L376,222 L368,222 L368,214 L376,214 Z M312,214 L312,222 L304,222 L304,214 L312,214 Z M568,150 L568,158 L560,158 L560,150 L568,150 Z M504,150 L504,158 L496,158 L496,150 L504,150 Z M440,150 L440,158 L432,158 L432,150 L440,150 Z M376,150 L376,158 L368,158 L368,150 L376,150 Z M312,150 L312,158 L304,158 L304,150 L312,150 Z" id="Shape" fill="#212121"></path>
    </g>
</svg>